<svg xmlns="http://www.w3.org/2000/svg" width="19.269" height="12" viewBox="0 0 19.269 12">
  <defs>
    <style>
      .cls-1 {
        fill: #fff;
      }
    </style>
  </defs>
  <path id="icon" class="cls-1" d="M18.918,13.747l4.92,4.92a1.471,1.471,0,0,1,0,2.081l-4.943,4.943a.092.092,0,0,1-.131,0l-.911-.911a.092.092,0,0,1,0-.131L21.9,20.612a.092.092,0,0,0-.064-.156H5.092A.092.092,0,0,1,5,20.364V19.076a.092.092,0,0,1,.092-.092H21.854a.091.091,0,0,0,.064-.156l-4.04-4.04a.092.092,0,0,1,0-.131l.911-.911A.089.089,0,0,1,18.918,13.747Z" transform="translate(-5 -13.719)"/>
</svg>
