<svg xmlns="http://www.w3.org/2000/svg" width="24" height="24" viewBox="0 0 24 24"><defs><style>.a{fill:#245ff2;}.b{fill:#fff;}</style></defs><g transform="translate(-33.371 -14)"><rect class="a" width="24" height="24" rx="4" transform="translate(33.371 14)"/><path class="b" d="M5.16,7.468C2.28,8.278,1.11,10.8,2.1,11.788c1.26,1.17,8.908,1.08,10.078,0,.99-.9-.18-3.419-3.059-4.319a3.691,3.691,0,0,1-1.98.63A3.691,3.691,0,0,1,5.16,7.468Zm1.98-.27A3.534,3.534,0,0,1,3.63,3.6,3.592,3.592,0,0,1,7.139,0a3.592,3.592,0,0,1,3.509,3.6A3.534,3.534,0,0,1,7.139,7.2Z" transform="translate(38.617 20)"/></g></svg>