<svg xmlns="http://www.w3.org/2000/svg" width="60" height="60" viewBox="0 0 60 60">
  <defs>
    <style>
      .cls-1, .cls-2 {
        fill: none;
      }

      .cls-2 {
        stroke: #ec6941;
        stroke-width: 3px;
      }

      .cls-3 {
        fill: #ec6941;
      }

      .cls-4, .cls-5 {
        stroke: #ec6941;
      }

      .cls-5 {
        fill: #ec6941;
      }
    </style>
  </defs>
  <g id="_-s-删除icon" data-name="-s-删除icon" transform="translate(-6990 -491)">
    <g id="矩形_1642" data-name="矩形 1642" class="cls-1">
      <path class="cls-4" d="M6996,501h48l-2,50h-44Z"/>
      <path class="cls-5" d="M 6999.12255859375 504 L 7000.88232421875 547.9998779296875 L 7039.1181640625 547.9998779296875 L 7040.876953125 504 L 6999.12255859375 504 M 6996 501 L 7043.99951171875 501 L 7042.00048828125 550.9998779296875 L 6998 550.9998779296875 L 6996 501 Z"/>
    </g>
    <g id="矩形_1642-2" data-name="矩形 1642" class="cls-2" transform="translate(6990 495)">
      <rect class="cls-4" width="60" height="3"/>
      <rect class="cls-1" x="1.5" y="1.5" width="57"/>
    </g>
    <g id="矩形_1642-3" data-name="矩形 1642" class="cls-2" transform="translate(7009 515)">
      <rect class="cls-4" width="3" height="20"/>
      <rect class="cls-1" x="1.5" y="1.5" height="17"/>
    </g>
    <g id="矩形_1642_拷贝_2" data-name="矩形 1642 拷贝 2" class="cls-2" transform="translate(7019 515)">
      <rect class="cls-4" width="3" height="20"/>
      <rect class="cls-1" x="1.5" y="1.5" height="17"/>
    </g>
    <g id="矩形_1642_拷贝" data-name="矩形 1642 拷贝" class="cls-2" transform="translate(7029 515)">
      <rect class="cls-4" width="3" height="20"/>
      <rect class="cls-1" x="1.5" y="1.5" height="17"/>
    </g>
    <path id="椭圆_1644" data-name="椭圆 1644" class="cls-3" d="M7020,491a4,4,0,0,1,4,4c0,2.209-4,2-4,2s-4,.209-4-2A4,4,0,0,1,7020,491Z"/>
  </g>
</svg>
