<svg xmlns="http://www.w3.org/2000/svg" xmlns:xlink="http://www.w3.org/1999/xlink" width="83.807" height="88" viewBox="0 0 83.807 88">
  <defs>
    <style>
      .cls-1 {
        fill: url(#linear-gradient);
      }
    </style>
    <linearGradient id="linear-gradient" x1="0.5" y1="0.683" x2="0.5" y2="1" gradientUnits="objectBoundingBox">
      <stop offset="0" stop-color="#fff"/>
      <stop offset="1" stop-color="#ecf1fd"/>
    </linearGradient>
  </defs>
  <path id="减去_1" data-name="减去 1" class="cls-1" d="M-248.318-72h0l-37.3,0A8.39,8.39,0,0,1-294-80.383v-71.237A8.39,8.39,0,0,1-285.619-160h62.855a8.39,8.39,0,0,1,8.381,8.381l0,28.725a16.774,16.774,0,0,0-12.578-5.678,16.7,16.7,0,0,0-5.92,1.082,16.848,16.848,0,0,0-10.838,15.679l.011.587.038.617a16.924,16.924,0,0,0,4.741,10.524l.409.4-1.532,4.922a1.41,1.41,0,0,1-1,.942A11.8,11.8,0,0,0-250-82.345v4.058A12.559,12.559,0,0,0-248.319-72Zm-26.266-29.071a3.146,3.146,0,0,0-3.143,3.143,3.146,3.146,0,0,0,3.143,3.143h4.714v4.714a3.147,3.147,0,0,0,3.144,3.143,3.146,3.146,0,0,0,3.143-3.143v-4.714h4.714a3.146,3.146,0,0,0,3.143-3.143,3.146,3.146,0,0,0-3.143-3.143h-4.714v-4.714a3.146,3.146,0,0,0-3.143-3.143,3.147,3.147,0,0,0-3.144,3.143v4.714Zm.488-28.549a3.14,3.14,0,0,0-3.137,2.992,3.141,3.141,0,0,0,2.836,3.28l.3.014h14.666a3.146,3.146,0,0,0,3.143-3.143,3.146,3.146,0,0,0-3.143-3.143Zm0-15.714a3.14,3.14,0,0,0-3.137,2.992,3.141,3.141,0,0,0,2.836,3.28l.3.014h39.809a3.146,3.146,0,0,0,3.143-3.143,3.146,3.146,0,0,0-3.143-3.143ZM-216.478-72H-237.43a6.293,6.293,0,0,1-6.286-6.286v-4.06a5.515,5.515,0,0,1,3.845-5.27l.346-.1a7.736,7.736,0,0,0,5.477-5.17l2.9-9.319a10.471,10.471,0,0,1-4.447-3.677,10.473,10.473,0,0,1-1.828-5.474l-.011-.454a10.488,10.488,0,0,1,10.476-10.476h.006a10.509,10.509,0,0,1,6.609,2.347,10.5,10.5,0,0,1,3.647,5.989,10.506,10.506,0,0,1-.949,6.951,10.509,10.509,0,0,1-5.122,4.794l2.906,9.319a7.691,7.691,0,0,0,5.045,5.049l.429.121a5.523,5.523,0,0,1,4.19,5.369v4.06A6.293,6.293,0,0,1-216.478-72Z" transform="translate(293.999 160)"/>
</svg>
